<svg width="30" height="30" viewBox="0 0 30 30" fill="none" xmlns="http://www.w3.org/2000/svg">
    <path d="M27.5 10.3375V5.2875C27.5 3.3 26.7 2.5 24.7125 2.5H19.6625C17.675 2.5 16.875 3.3 16.875 5.2875V10.3375C16.875 12.325 17.675 13.125 19.6625 13.125H24.7125C26.7 13.125 27.5 12.325 27.5 10.3375Z" stroke="white" stroke-width="1.5" stroke-linecap="round" stroke-linejoin="round"/>
    <path d="M13.125 10.65V4.975C13.125 3.2125 12.325 2.5 10.3375 2.5H5.2875C3.3 2.5 2.5 3.2125 2.5 4.975V10.6375C2.5 12.4125 3.3 13.1125 5.2875 13.1125H10.3375C12.325 13.125 13.125 12.4125 13.125 10.65Z" stroke="white" stroke-width="1.5" stroke-linecap="round" stroke-linejoin="round"/>
    <path d="M13.125 24.7125V19.6625C13.125 17.675 12.325 16.875 10.3375 16.875H5.2875C3.3 16.875 2.5 17.675 2.5 19.6625V24.7125C2.5 26.7 3.3 27.5 5.2875 27.5H10.3375C12.325 27.5 13.125 26.7 13.125 24.7125Z" stroke="white" stroke-width="1.5" stroke-linecap="round" stroke-linejoin="round"/>
    <path d="M18.125 21.875H25.625" stroke="white" stroke-width="1.5" stroke-linecap="round"/>
    <path d="M21.875 25.625V18.125" stroke="white" stroke-width="1.5" stroke-linecap="round"/>
</svg>
