<svg width="30" height="30" viewBox="0 0 30 30" fill="none" xmlns="http://www.w3.org/2000/svg">
    <path d="M15.6625 25.525H7.7625C3.8125 25.525 2.5 22.9 2.5 20.2625V9.73748C2.5 5.78748 3.8125 4.47498 7.7625 4.47498H15.6625C19.6125 4.47498 20.925 5.78748 20.925 9.73748V20.2625C20.925 24.2125 19.6 25.525 15.6625 25.525Z" stroke="white" stroke-width="1.5" stroke-linecap="round" stroke-linejoin="round"/>
    <path d="M24.4 21.375L20.925 18.9375V11.05L24.4 8.61248C26.1 7.42498 27.5 8.14998 27.5 10.2375V19.7625C27.5 21.85 26.1 22.575 24.4 21.375Z" stroke="white" stroke-width="1.5" stroke-linecap="round" stroke-linejoin="round"/>
    <path d="M14.375 13.75C15.4105 13.75 16.25 12.9105 16.25 11.875C16.25 10.8395 15.4105 10 14.375 10C13.3395 10 12.5 10.8395 12.5 11.875C12.5 12.9105 13.3395 13.75 14.375 13.75Z" stroke="white" stroke-width="1.5" stroke-linecap="round" stroke-linejoin="round"/>
</svg>
