<svg width="49" height="19" viewBox="0 0 49 19" fill="none" xmlns="http://www.w3.org/2000/svg">
    <path d="M5.52624 17.5491L1.6626 13.6854C1.30247 13.3282 1.02092 12.8997 0.835971 12.4274C0.651021 11.9551 0.566765 11.4493 0.588587 10.9425C0.610409 10.4358 0.737834 9.93913 0.962697 9.48445C1.18756 9.02976 1.50491 8.62706 1.89442 8.30212C6.28805 4.76972 11.449 2.31716 16.9626 1.14151C22.0517 0.00710399 27.3281 0.00710399 32.4171 1.14151C37.9535 2.32478 43.1333 4.79555 47.5368 8.35363C47.9252 8.67759 48.2418 9.07886 48.4665 9.53188C48.6913 9.98491 48.8192 10.4798 48.8422 10.985C48.8653 11.4901 48.7828 11.9946 48.6002 12.4662C48.4176 12.9378 48.1388 13.3662 47.7815 13.7241L43.9179 17.5877C43.299 18.2189 42.4718 18.6035 41.5903 18.6698C40.7089 18.7362 39.8334 18.4797 39.127 17.9483C37.7275 16.875 36.211 15.9633 34.6065 15.2309C33.9723 14.9432 33.4338 14.4797 33.0549 13.8954C32.676 13.3111 32.4725 12.6304 32.4687 11.9339V8.66272C27.411 7.27183 22.0717 7.27183 17.0141 8.66272V11.9339C17.0102 12.6304 16.8068 13.3111 16.4279 13.8954C16.0489 14.4797 15.5105 14.9432 14.8762 15.2309C13.2718 15.9633 11.7553 16.875 10.3558 17.9483C9.64192 18.4857 8.75545 18.7419 7.86499 18.6683C6.97452 18.5947 6.14217 18.1964 5.52624 17.5491Z" fill="white"/>
</svg>
