<svg width="4" height="27" viewBox="0 0 4 27" fill="none" xmlns="http://www.w3.org/2000/svg">
    <path d="M2 15C2.55228 15 3 14.3284 3 13.5C3 12.6716 2.55228 12 2 12C1.44772 12 1 12.6716 1 13.5C1 14.3284 1.44772 15 2 15Z" fill="white" stroke="white" stroke-width="2" stroke-linecap="round" stroke-linejoin="round"/>
    <path d="M2 4C2.55228 4 3 3.32843 3 2.5C3 1.67157 2.55228 1 2 1C1.44772 1 1 1.67157 1 2.5C1 3.32843 1.44772 4 2 4Z" fill="white" stroke="white" stroke-width="2" stroke-linecap="round" stroke-linejoin="round"/>
    <path d="M2 26C2.55228 26 3 25.3284 3 24.5C3 23.6716 2.55228 23 2 23C1.44772 23 1 23.6716 1 24.5C1 25.3284 1.44772 26 2 26Z" fill="white" stroke="white" stroke-width="2" stroke-linecap="round" stroke-linejoin="round"/>
</svg>
