<svg width="30" height="30" viewBox="0 0 30 30" fill="none" xmlns="http://www.w3.org/2000/svg">
    <path d="M12.5 23.75C12.5 25.125 13.625 26.25 15 26.25C16.375 26.25 17.5 25.125 17.5 23.75C17.5 22.375 16.375 21.25 15 21.25C13.625 21.25 12.5 22.375 12.5 23.75Z" stroke="white" stroke-width="1.5"/>
    <path d="M12.5 6.25C12.5 7.625 13.625 8.75 15 8.75C16.375 8.75 17.5 7.625 17.5 6.25C17.5 4.875 16.375 3.75 15 3.75C13.625 3.75 12.5 4.875 12.5 6.25Z" stroke="white" stroke-width="1.5"/>
    <path d="M12.5 15C12.5 16.375 13.625 17.5 15 17.5C16.375 17.5 17.5 16.375 17.5 15C17.5 13.625 16.375 12.5 15 12.5C13.625 12.5 12.5 13.625 12.5 15Z" stroke="white" stroke-width="1.5"/>
</svg>
