<svg width="30" height="30" viewBox="0 0 30 30" fill="none" xmlns="http://www.w3.org/2000/svg">
    <path d="M15 19.375C17.7625 19.375 20 17.1375 20 14.375V7.5C20 4.7375 17.7625 2.5 15 2.5C12.2375 2.5 10 4.7375 10 7.5V14.375C10 17.1375 12.2375 19.375 15 19.375Z" stroke="white" stroke-width="1.5" stroke-linecap="round" stroke-linejoin="round"/>
    <path d="M5.4375 12.0625V14.1875C5.4375 19.4625 9.725 23.75 15 23.75C20.275 23.75 24.5625 19.4625 24.5625 14.1875V12.0625" stroke="white" stroke-width="1.5" stroke-linecap="round" stroke-linejoin="round"/>
    <path d="M13.2625 8.03752C14.3875 7.62502 15.6125 7.62502 16.7375 8.03752" stroke="white" stroke-width="1.5" stroke-linecap="round" stroke-linejoin="round"/>
    <path d="M14 10.6875C14.6625 10.5125 15.35 10.5125 16.0125 10.6875" stroke="white" stroke-width="1.5" stroke-linecap="round" stroke-linejoin="round"/>
    <path d="M15 23.75V27.5" stroke="white" stroke-width="1.5" stroke-linecap="round" stroke-linejoin="round"/>
</svg>
