<svg width="30" height="30" viewBox="0 0 30 30" fill="none" xmlns="http://www.w3.org/2000/svg">
    <path d="M11.25 27.5H18.75C25 27.5 27.5 25 27.5 18.75V11.25C27.5 5 25 2.5 18.75 2.5H11.25C5 2.5 2.5 5 2.5 11.25V18.75C2.5 25 5 27.5 11.25 27.5Z" stroke="white" stroke-width="1.5" stroke-linecap="round" stroke-linejoin="round"/>
    <path d="M15.75 23.125H20.5C22.375 23.125 23.125 22.375 23.125 20.5V18.25C23.125 16.375 22.375 15.625 20.5 15.625H15.75C13.875 15.625 13.125 16.375 13.125 18.25V20.5C13.125 22.375 13.875 23.125 15.75 23.125Z" stroke="white" stroke-width="1.5" stroke-linecap="round" stroke-linejoin="round"/>
</svg>
