<svg width="35" height="35" viewBox="0 0 35 35" fill="none" xmlns="http://www.w3.org/2000/svg">
    <circle cx="17.5" cy="17.5" r="16" stroke="white" stroke-width="3"/>
    <path d="M18.1626 27H15.9043V13.792H18.1626V27ZM15.7212 10.2886C15.7212 9.92236 15.8311 9.61312 16.0508 9.36084C16.2786 9.10856 16.6123 8.98242 17.0518 8.98242C17.4912 8.98242 17.8249 9.10856 18.0527 9.36084C18.2806 9.61312 18.3945 9.92236 18.3945 10.2886C18.3945 10.6548 18.2806 10.96 18.0527 11.2041C17.8249 11.4482 17.4912 11.5703 17.0518 11.5703C16.6123 11.5703 16.2786 11.4482 16.0508 11.2041C15.8311 10.96 15.7212 10.6548 15.7212 10.2886Z" fill="white"/>
</svg>
