<svg width="30" height="30" viewBox="0 0 30 30" fill="none" xmlns="http://www.w3.org/2000/svg">
    <path d="M23.6597 4.29458C23.1994 4.29458 22.7628 4.39639 22.3699 4.57744C22.1033 3.14128 20.842 2.05008 19.3298 2.05008C18.8547 2.05008 18.4046 2.15796 18.0019 2.35021C17.6684 1.00237 16.4493 0 14.9999 0C13.5505 0 12.3314 1.00243 11.9979 2.35021C11.5953 2.15802 11.145 2.05008 10.67 2.05008C8.96463 2.05008 7.57721 3.43751 7.57721 5.14287V12.703C7.1981 12.5368 6.77983 12.444 6.3401 12.444C4.63474 12.444 3.24731 13.8314 3.24731 15.5368V21.8969C3.24731 26.3649 6.88232 30 11.3504 30H18.6494C23.1174 30 26.7525 26.3649 26.7525 21.8969V7.38736C26.7525 5.68194 25.365 4.29458 23.6597 4.29458ZM24.8968 21.8969C24.8968 25.3417 22.0942 28.1443 18.6494 28.1443H11.3504C7.9056 28.1443 5.10298 25.3417 5.10298 21.8969V15.5368C5.10298 14.8546 5.65795 14.2997 6.3401 14.2997C7.02224 14.2997 7.57721 14.8546 7.57721 15.5368V20.4852H9.43288V5.14287C9.43288 4.46072 9.98785 3.90575 10.67 3.90575C11.3521 3.90575 11.9071 4.46072 11.9071 5.14287V14.9182H13.7628V3.09278C13.7628 2.41064 14.3177 1.85567 14.9999 1.85567C15.682 1.85567 16.237 2.41064 16.237 3.09278V14.9182H18.0927V5.14287C18.0927 4.46072 18.6476 3.90575 19.3298 3.90575C20.0119 3.90575 20.5669 4.46072 20.5669 5.14287V14.9182H22.4226V7.3873C22.4226 6.70515 22.9775 6.15019 23.6597 6.15019C24.3418 6.15019 24.8968 6.70515 24.8968 7.3873V21.8969Z" fill="white"/>
</svg>
