<svg width="38" height="32" viewBox="0 0 38 32" fill="none" xmlns="http://www.w3.org/2000/svg">
    <path d="M27 31V27.6667C27 25.8986 26.3152 24.2029 25.0962 22.9526C23.8772 21.7024 22.2239 21 20.5 21H7.5C5.77609 21 4.12279 21.7024 2.90381 22.9526C1.68482 24.2029 1 25.8986 1 27.6667V31" stroke="white" stroke-width="2" stroke-linecap="round" stroke-linejoin="round"/>
    <path d="M14.5 14C18.0899 14 21 11.0899 21 7.5C21 3.91015 18.0899 1 14.5 1C10.9101 1 8 3.91015 8 7.5C8 11.0899 10.9101 14 14.5 14Z" stroke="white" stroke-width="2" stroke-linecap="round" stroke-linejoin="round"/>
    <path d="M37 31V27.5928C36.9991 26.083 36.6058 24.6163 35.8818 23.423C35.1578 22.2297 34.1442 21.3775 33 21" stroke="white" stroke-width="2" stroke-linecap="round" stroke-linejoin="round"/>
    <path d="M25 1C26.4303 1.36954 27.698 2.20892 28.6033 3.38581C29.5086 4.5627 30 6.01017 30 7.5C30 8.98983 29.5086 10.4373 28.6033 11.6142C27.698 12.7911 26.4303 13.6305 25 14" stroke="white" stroke-width="2" stroke-linecap="round" stroke-linejoin="round"/>
</svg>
