<svg width="34" height="24" viewBox="0 0 34 24" fill="none" xmlns="http://www.w3.org/2000/svg">
    <rect x="1" y="1" width="32" height="22" rx="4" stroke="white" stroke-width="2"/>
    <path d="M15.8818 14.165C15.8154 15.46 15.4502 16.4505 14.7861 17.1367C14.1276 17.8229 13.1951 18.166 11.9888 18.166C10.7769 18.166 9.81396 17.7067 9.1001 16.7881C8.38623 15.8639 8.0293 14.6133 8.0293 13.0361V10.8447C8.0293 9.27311 8.39453 8.03076 9.125 7.11768C9.861 6.20459 10.8626 5.74805 12.1299 5.74805C13.2975 5.74805 14.1995 6.09945 14.8359 6.80225C15.4779 7.49951 15.8265 8.49837 15.8818 9.79883H14.3462C14.2798 8.8138 14.0723 8.111 13.7236 7.69043C13.375 7.26986 12.8438 7.05957 12.1299 7.05957C11.3053 7.05957 10.6717 7.3833 10.229 8.03076C9.7863 8.67269 9.56494 9.61621 9.56494 10.8613V13.0776C9.56494 14.3006 9.76969 15.2386 10.1792 15.8916C10.5942 16.5446 11.1974 16.8711 11.9888 16.8711C12.7801 16.8711 13.3501 16.6746 13.6987 16.2817C14.0474 15.8888 14.2632 15.1833 14.3462 14.165H15.8818ZM25.5273 14.165C25.4609 15.46 25.0957 16.4505 24.4316 17.1367C23.7731 17.8229 22.8407 18.166 21.6343 18.166C20.4224 18.166 19.4595 17.7067 18.7456 16.7881C18.0317 15.8639 17.6748 14.6133 17.6748 13.0361V10.8447C17.6748 9.27311 18.04 8.03076 18.7705 7.11768C19.5065 6.20459 20.5081 5.74805 21.7754 5.74805C22.943 5.74805 23.8451 6.09945 24.4814 6.80225C25.1234 7.49951 25.472 8.49837 25.5273 9.79883H23.9917C23.9253 8.8138 23.7178 8.111 23.3691 7.69043C23.0205 7.26986 22.4893 7.05957 21.7754 7.05957C20.9508 7.05957 20.3172 7.3833 19.8745 8.03076C19.4318 8.67269 19.2104 9.61621 19.2104 10.8613V13.0776C19.2104 14.3006 19.4152 15.2386 19.8247 15.8916C20.2397 16.5446 20.8429 16.8711 21.6343 16.8711C22.4256 16.8711 22.9956 16.6746 23.3442 16.2817C23.6929 15.8888 23.9087 15.1833 23.9917 14.165H25.5273Z" fill="white"/>
</svg>
